<svg width="24" height="24" viewBox="0 0 24 24" fill="none" xmlns="http://www.w3.org/2000/svg">
<g clip-path="url(#clip0_716_33)">
<path d="M7.2,4.5c0.6,0,1.2,0.1,1.8,0.2c0.5,0.1,1,0.3,1.4,0.6c0.4,0.3,0.7,0.7,0.9,1.1c0.2,0.5,0.3,1.1,0.3,1.7
	c0,0.7-0.1,1.3-0.5,1.9c-0.4,0.5-0.8,0.9-1.4,1.2c0.8,0.2,1.5,0.7,1.9,1.4c0.4,0.7,0.7,1.5,0.6,2.4c0,0.7-0.1,1.3-0.4,1.9
	c-0.3,0.5-0.6,1-1.1,1.3c-0.5,0.3-1,0.6-1.6,0.8c-0.6,0.2-1.2,0.2-1.8,0.2H0.7V4.5H7.2z M6.8,10.5c0.5,0,1-0.1,1.3-0.4
	c0.4-0.3,0.6-0.8,0.5-1.3c0-0.3,0-0.6-0.2-0.8C8.4,7.7,8.3,7.5,8.1,7.4C7.9,7.2,7.6,7.2,7.4,7.1C7.1,7.1,6.9,7,6.6,7H3.7v3.4
	L6.8,10.5L6.8,10.5z M7,16.7c0.3,0,0.6,0,0.9-0.1c0.3-0.1,0.5-0.2,0.7-0.3c0.2-0.1,0.4-0.4,0.5-0.6c0.1-0.3,0.2-0.6,0.2-1
	c0.1-0.6-0.2-1.2-0.6-1.6c-0.5-0.3-1-0.5-1.6-0.5H3.7v4H7z M16.7,16.6c0.5,0.4,1.1,0.7,1.8,0.6c0.5,0,1-0.1,1.4-0.4
	c0.3-0.2,0.6-0.6,0.7-0.9h2.4c-0.3,1.1-0.9,2.1-1.8,2.7c-0.9,0.6-1.9,0.9-2.9,0.8c-0.7,0-1.5-0.1-2.2-0.4c-0.6-0.3-1.2-0.6-1.6-1.1
	c-0.5-0.5-0.8-1.1-1-1.8c-0.2-0.7-0.4-1.5-0.4-2.3c0-0.8,0.1-1.5,0.4-2.2c0.7-2.1,2.6-3.4,4.8-3.4c0.8,0,1.6,0.2,2.2,0.5
	c0.6,0.3,1.2,0.8,1.6,1.4c0.4,0.6,0.7,1.3,0.9,2c0.2,0.8,0.2,1.6,0.2,2.4H16C16,15.3,16.2,16.1,16.7,16.6z M19.9,11.1
	c-0.4-0.4-1-0.6-1.6-0.6c-0.4,0-0.8,0.1-1.1,0.2c-0.3,0.1-0.5,0.3-0.7,0.6c-0.2,0.2-0.3,0.5-0.4,0.7c-0.1,0.2-0.1,0.5-0.1,0.7h4.5
	C20.5,12.1,20.3,11.6,19.9,11.1L19.9,11.1z M15.4,5.5h5.6v1.4h-5.6V5.5z" fill="black"/>
</g>
<defs>
<clipPath id="clip0_716_33">
<rect width="24" height="24" fill="white"/>
</clipPath>
</defs>
</svg>