<svg width="24" height="24" viewBox="0 0 24 24" fill="none" xmlns="http://www.w3.org/2000/svg">
<path d="M7 0H17C18.8565 0 20.637 0.737498 21.9497 2.05025C23.2625 3.36301 24 5.14348 24 7V17C24 18.8565 23.2625 20.637 21.9497 21.9497C20.637 23.2625 18.8565 24 17 24H7C5.14348 24 3.36301 23.2625 2.05025 21.9497C0.737498 20.637 0 18.8565 0 17L0 7C0 5.14348 0.737498 3.36301 2.05025 2.05025C3.36301 0.737498 5.14348 0 7 0V0ZM6.72 2.4C6.15232 2.39868 5.58997 2.50952 5.06525 2.72615C4.54053 2.94279 4.06377 3.26095 3.66236 3.66236C3.26095 4.06377 2.94279 4.54053 2.72615 5.06525C2.50952 5.58997 2.39868 6.15232 2.4 6.72V6.72V17.28C2.39868 17.8477 2.50952 18.41 2.72615 18.9348C2.94279 19.4595 3.26095 19.9362 3.66236 20.3376C4.06377 20.7391 4.54053 21.0572 5.06525 21.2738C5.58997 21.4905 6.15232 21.6013 6.72 21.6H17.28C17.8477 21.6013 18.41 21.4905 18.9348 21.2738C19.4595 21.0572 19.9362 20.7391 20.3376 20.3376C20.7391 19.9362 21.0572 19.4595 21.2738 18.9348C21.4905 18.41 21.6013 17.8477 21.6 17.28V17.28V6.72C21.6013 6.15232 21.4905 5.58997 21.2738 5.06525C21.0572 4.54053 20.7391 4.06377 20.3376 3.66236C19.9362 3.26095 19.4595 2.94279 18.9348 2.72615C18.41 2.50952 17.8477 2.39868 17.28 2.4H6.72ZM18.3 4.2C18.5967 4.2 18.8867 4.28797 19.1334 4.4528C19.38 4.61762 19.5723 4.85189 19.6858 5.12597C19.7994 5.40006 19.8291 5.70166 19.7712 5.99264C19.7133 6.28361 19.5704 6.55088 19.3607 6.76066C19.1509 6.97044 18.8836 7.1133 18.5926 7.17118C18.3017 7.22906 18.0001 7.19935 17.726 7.08582C17.4519 6.97229 17.2176 6.78003 17.0528 6.53336C16.888 6.28668 16.8 5.99667 16.8 5.7V5.7C16.8 5.30218 16.958 4.92064 17.2393 4.63934C17.5206 4.35804 17.9022 4.2 18.3 4.2V4.2ZM12 6C13.1867 6 14.3467 6.35189 15.3334 7.01118C16.3201 7.67047 17.0892 8.60754 17.5433 9.7039C17.9974 10.8003 18.1162 12.0067 17.8847 13.1705C17.6532 14.3344 17.0818 15.4035 16.2426 16.2426C15.4035 17.0818 14.3344 17.6532 13.1705 17.8847C12.0067 18.1162 10.8003 17.9974 9.7039 17.5433C8.60754 17.0892 7.67047 16.3201 7.01118 15.3334C6.35189 14.3467 6 13.1867 6 12C6 10.4087 6.63214 8.88258 7.75736 7.75736C8.88258 6.63214 10.4087 6 12 6V6ZM12 8.4C11.288 8.4 10.592 8.61114 9.99995 9.00671C9.40793 9.40228 8.94651 9.96453 8.67403 10.6223C8.40156 11.2802 8.33027 12.004 8.46917 12.7023C8.60808 13.4007 8.95095 14.0421 9.45442 14.5456C9.95788 15.0491 10.5993 15.3919 11.2977 15.5308C11.996 15.6697 12.7198 15.5984 13.3777 15.326C14.0355 15.0535 14.5977 14.5921 14.9933 14.0001C15.3889 13.408 15.6 12.712 15.6 12V12C15.6 11.0452 15.2207 10.1295 14.5456 9.45442C13.8705 8.77928 12.9548 8.4 12 8.4V8.4Z" fill="white"/>
</svg>
