<svg width="24" height="24" viewBox="0 0 24 24" fill="none" xmlns="http://www.w3.org/2000/svg">
<g clip-path="url(#clip0_716_33)">
<path d="M24 24H18.67V15C18.67 13.59 17.08 12.41 15.67 12.41C15.3548 12.4178 15.0442 12.4876 14.756 12.6155C14.4678 12.7433 14.2076 12.9267 13.9903 13.1552C13.773 13.3836 13.6028 13.6526 13.4895 13.9469C13.3762 14.2411 13.322 14.5548 13.33 14.87V24H8V8H13.33V10.67C13.8861 9.9572 14.5934 9.37668 15.401 8.9703C16.2085 8.56392 17.0962 8.34182 18 8.32C19.5913 8.32 21.1174 8.95214 22.2426 10.0774C23.3679 11.2026 24 12.7287 24 14.32V24ZM5.33 24H0V8H5.33V24ZM2.67 0C3.19808 0 3.71429 0.156593 4.15337 0.449976C4.59245 0.74336 4.93467 1.16036 5.13676 1.64824C5.33884 2.13611 5.39172 2.67296 5.2887 3.19089C5.18567 3.70882 4.93138 4.18457 4.55798 4.55798C4.18457 4.93138 3.70882 5.18567 3.19089 5.2887C2.67296 5.39172 2.13611 5.33884 1.64824 5.13676C1.16036 4.93467 0.74336 4.59245 0.449976 4.15337C0.156593 3.71429 0 3.19808 0 2.67H0C0 1.96187 0.281303 1.28275 0.782025 0.782025C1.28275 0.281303 1.96187 0 2.67 0V0Z" fill="black"/>
</g>
<defs>
<clipPath id="clip0_716_33">
<rect width="24" height="24" fill="white"/>
</clipPath>
</defs>
</svg>
