<svg width="40" height="40" viewBox="0 0 40 40" fill="none" xmlns="http://www.w3.org/2000/svg">
<g clip-path="url(#clip0_716_65)">
<path d="M22.6503 18.6042L10.1654 18.6042L10.1654 21.7654L22.6503 21.7654C21.2761 23.3777 20.5218 25.427 20.523 27.5454L23.6842 27.5454C23.6859 26.013 24.2955 24.5438 25.379 23.4603C26.4627 22.3767 27.9318 21.7672 29.4642 21.7654L29.4642 18.6042C27.9318 18.6023 26.4628 17.9927 25.3793 16.9092C24.2957 15.8257 23.6861 14.3566 23.6842 12.8242L20.523 12.8242C20.5218 14.9426 21.2761 16.992 22.6503 18.6042Z" fill="white"/>
<path d="M1.21212 20C1.21212 22.5369 1.7087 24.9972 2.68807 27.3127C3.63428 29.5498 4.98913 31.5592 6.71497 33.285C8.44079 35.0109 10.4502 36.3657 12.6873 37.3119C15.0028 38.2913 17.4631 38.7879 20 38.7879C22.5369 38.7879 24.9972 38.2913 27.3127 37.3119C29.5498 36.3657 31.5592 35.0109 33.285 33.285C35.0108 31.5592 36.3657 29.5498 37.3119 27.3127C38.2913 24.9972 38.7879 22.5369 38.7879 20C38.7879 17.4631 38.2913 15.0028 37.3119 12.6873C36.3657 10.4502 35.0108 8.44079 33.285 6.71497C31.5592 4.98915 29.5498 3.6343 27.3127 2.68806C24.9972 1.70872 22.5369 1.21212 20 1.21212C17.4631 1.21212 15.0028 1.70872 12.6873 2.68806C10.4502 3.6343 8.44079 4.98915 6.71497 6.71497C4.98913 8.44079 3.63428 10.4502 2.68807 12.6873C1.7087 15.0028 1.21212 17.4631 1.21212 20ZM-8.74228e-07 20C-1.35705e-06 8.9543 8.9543 -1.5835e-06 20 -2.06632e-06C31.0457 -2.54914e-06 40 8.9543 40 20C40 31.0457 31.0457 40 20 40C8.9543 40 -3.91405e-07 31.0457 -8.74228e-07 20Z" fill="#ffffff"/>
</g>
<defs>
<clipPath id="clip0_716_65">
<rect width="40" height="40" fill="white" transform="translate(0 40) rotate(-90)"/>
</clipPath>
</defs>
</svg>
