<svg width="24" height="24" viewBox="0 0 24 24" fill="none" xmlns="http://www.w3.org/2000/svg">
<g clip-path="url(#clip0_716_41)">
<path d="M12.05 -9.18984e-05C9.95827 -0.0106757 7.90076 0.53075 6.08517 1.56953C4.26958 2.60832 2.76016 4.10769 1.70928 5.9163C0.658392 7.72492 0.103239 9.77876 0.099855 11.8705C0.0964705 13.9623 0.644974 16.0179 1.69 17.8299L0 23.9999L6.33 22.3399C8.14611 23.33 10.1881 23.8318 12.2563 23.7961C14.3245 23.7604 16.348 23.1885 18.1288 22.1363C19.9097 21.0841 21.387 19.5877 22.4161 17.7934C23.4452 15.9991 23.991 13.9684 24 11.8999C24.0041 10.3359 23.6967 8.78683 23.0958 7.34291C22.4949 5.899 21.6125 4.58919 20.5 3.48991C19.3918 2.37895 18.0745 1.49854 16.6242 0.899518C15.1738 0.3005 13.6192 -0.00525535 12.05 -9.18984e-05V-9.18984e-05ZM12.05 1.99991C13.5711 2.00159 15.0714 2.35414 16.4341 3.03012C17.7968 3.7061 18.9852 4.6873 19.9068 5.89742C20.8285 7.10753 21.4586 8.51394 21.7482 10.0073C22.0378 11.5006 21.979 13.0406 21.5764 14.5075C21.1738 15.9744 20.4382 17.3286 19.4269 18.4649C18.4157 19.6012 17.1559 20.489 15.7456 21.0591C14.3354 21.6291 12.8126 21.8663 11.2958 21.7519C9.77891 21.6376 8.30889 21.1749 7 20.3999L6.64 20.1999L2.88 21.1999L3.88 17.5499L3.64 17.1699C2.64389 15.5966 2.11664 13.772 2.12 11.9099C2.12794 9.27886 3.17869 6.75828 5.04194 4.90065C6.9052 3.04302 9.42894 1.9999 12.06 1.99991H12.05ZM7.82 6.39991C7.66835 6.40309 7.51899 6.4376 7.38132 6.50128C7.24365 6.56495 7.12063 6.65641 7.02 6.76991C6.68931 7.09147 6.42816 7.4775 6.25271 7.90409C6.07726 8.33067 5.99125 8.78873 6 9.24991C6.0987 10.3685 6.51893 11.4347 7.21 12.3199C8.48832 14.2304 10.2427 15.7745 12.3 16.7999C12.8537 17.0463 13.4213 17.26 14 17.4399C14.61 17.6187 15.2522 17.6597 15.88 17.5599C16.2924 17.4717 16.6825 17.3003 17.0264 17.0561C17.3703 16.812 17.6608 16.5002 17.88 16.1399C18.0743 15.6935 18.1368 15.2007 18.06 14.7199C17.8924 14.5722 17.6944 14.4629 17.48 14.3999C17.18 14.2299 15.71 13.5099 15.48 13.3999C15.25 13.2899 15.04 13.2499 14.81 13.5399C14.58 13.8299 14.03 14.5399 13.87 14.6999C13.71 14.8599 13.52 14.9299 13.23 14.7899C12.344 14.4398 11.5253 13.9391 10.81 13.3099C10.1582 12.7088 9.59884 12.0146 9.15 11.2499C9.09168 11.152 9.07267 11.0357 9.09679 10.9243C9.12092 10.8129 9.1864 10.7149 9.28 10.6499C9.4451 10.4866 9.59567 10.3093 9.73 10.1199C9.85559 9.97369 9.95688 9.80825 10.03 9.62991C10.0729 9.54996 10.0953 9.46064 10.0953 9.36991C10.0953 9.27918 10.0729 9.18986 10.03 9.10991C9.91 8.99991 9.31 7.50991 9.06 6.91991C8.81 6.32991 8.57 6.41991 8.38 6.40991L7.82 6.39991Z" fill="white"/>
</g>
<defs>
<clipPath id="clip0_716_41">
<rect width="24" height="24" fill="white"/>
</clipPath>
</defs>
</svg>
